<mxfile host="app.diagrams.net" modified="2023-05-23T00:35:41.967Z" agent="Mozilla/5.0 (X11; Ubuntu; Linux x86_64; rv:109.0) Gecko/20100101 Firefox/113.0" etag="MxLRSNsyWWP58XkMS0zw" version="21.3.2" type="github">
  <diagram id="C5RBs43oDa-KdzZeNtuy" name="Page-1">
    <mxGraphModel dx="4347" dy="2040" grid="1" gridSize="10" guides="1" tooltips="1" connect="1" arrows="1" fold="1" page="1" pageScale="1" pageWidth="827" pageHeight="1169" math="0" shadow="0">
      <root>
        <mxCell id="WIyWlLk6GJQsqaUBKTNV-0" />
        <mxCell id="WIyWlLk6GJQsqaUBKTNV-1" parent="WIyWlLk6GJQsqaUBKTNV-0" />
        <mxCell id="TYavUjJfIlVdrUG1dmR8-3" value="&lt;font face=&quot;Times New Roman&quot; style=&quot;font-size: 18px;&quot;&gt;&lt;b&gt;DIAGRAMA DE OBJETOS&lt;/b&gt;&lt;/font&gt;" style="text;strokeColor=none;align=center;fillColor=none;html=1;verticalAlign=middle;whiteSpace=wrap;rounded=0;" parent="WIyWlLk6GJQsqaUBKTNV-1" vertex="1">
          <mxGeometry x="737.5" y="880" width="235" height="30" as="geometry" />
        </mxCell>
        <mxCell id="-OgCu0V1GGCa8CGJmkHm-1" value="&lt;b&gt;e1: Estacionamento&lt;/b&gt;" style="swimlane;fontStyle=0;childLayout=stackLayout;horizontal=1;startSize=26;fillColor=none;horizontalStack=0;resizeParent=1;resizeParentMax=0;resizeLast=0;collapsible=1;marginBottom=0;whiteSpace=wrap;html=1;" parent="WIyWlLk6GJQsqaUBKTNV-1" vertex="1">
          <mxGeometry x="-17.5" y="990" width="210" height="190" as="geometry" />
        </mxCell>
        <mxCell id="-OgCu0V1GGCa8CGJmkHm-2" value="valorPorcentagemContratante&lt;span style=&quot;&quot;&gt; &lt;/span&gt;= 0.5&lt;br&gt;&lt;br&gt;&lt;div&gt;capacidadeEstacionamento = 300&lt;/div&gt;&lt;div&gt;&lt;br&gt;&lt;/div&gt;&lt;div&gt;valorDescontoHc = 0.15&lt;br&gt;&lt;/div&gt;&lt;br&gt;&lt;div&gt;acessoFracao = 30&lt;/div&gt;&lt;div&gt;&lt;br&gt;&lt;/div&gt;" style="text;strokeColor=none;fillColor=none;align=left;verticalAlign=top;spacingLeft=4;spacingRight=4;overflow=hidden;rotatable=0;points=[[0,0.5],[1,0.5]];portConstraint=eastwest;whiteSpace=wrap;html=1;" parent="-OgCu0V1GGCa8CGJmkHm-1" vertex="1">
          <mxGeometry y="26" width="210" height="164" as="geometry" />
        </mxCell>
        <mxCell id="-OgCu0V1GGCa8CGJmkHm-13" value="&lt;b&gt;close1:Tempo&lt;/b&gt;" style="swimlane;fontStyle=0;childLayout=stackLayout;horizontal=1;startSize=26;fillColor=none;horizontalStack=0;resizeParent=1;resizeParentMax=0;resizeLast=0;collapsible=1;marginBottom=0;whiteSpace=wrap;html=1;" parent="WIyWlLk6GJQsqaUBKTNV-1" vertex="1">
          <mxGeometry x="222.5" y="1150" width="140" height="80" as="geometry" />
        </mxCell>
        <mxCell id="-OgCu0V1GGCa8CGJmkHm-15" value="hora = 22&lt;br&gt;&lt;br&gt;minuto = 0" style="text;strokeColor=none;fillColor=none;align=left;verticalAlign=top;spacingLeft=4;spacingRight=4;overflow=hidden;rotatable=0;points=[[0,0.5],[1,0.5]];portConstraint=eastwest;whiteSpace=wrap;html=1;" parent="-OgCu0V1GGCa8CGJmkHm-13" vertex="1">
          <mxGeometry y="26" width="140" height="54" as="geometry" />
        </mxCell>
        <mxCell id="-OgCu0V1GGCa8CGJmkHm-18" value="&lt;b&gt;open1:Tempo&lt;/b&gt;" style="swimlane;fontStyle=0;childLayout=stackLayout;horizontal=1;startSize=26;fillColor=none;horizontalStack=0;resizeParent=1;resizeParentMax=0;resizeLast=0;collapsible=1;marginBottom=0;whiteSpace=wrap;html=1;" parent="WIyWlLk6GJQsqaUBKTNV-1" vertex="1">
          <mxGeometry x="-187.5" y="1150" width="140" height="80" as="geometry" />
        </mxCell>
        <mxCell id="-OgCu0V1GGCa8CGJmkHm-19" value="hora = 6&lt;br&gt;&lt;br&gt;minuto = 0" style="text;strokeColor=none;fillColor=none;align=left;verticalAlign=top;spacingLeft=4;spacingRight=4;overflow=hidden;rotatable=0;points=[[0,0.5],[1,0.5]];portConstraint=eastwest;whiteSpace=wrap;html=1;" parent="-OgCu0V1GGCa8CGJmkHm-18" vertex="1">
          <mxGeometry y="26" width="140" height="54" as="geometry" />
        </mxCell>
        <mxCell id="-OgCu0V1GGCa8CGJmkHm-20" value="&lt;b&gt;e1v1:Acesso&lt;/b&gt;" style="swimlane;fontStyle=0;childLayout=stackLayout;horizontal=1;startSize=26;fillColor=none;horizontalStack=0;resizeParent=1;resizeParentMax=0;resizeLast=0;collapsible=1;marginBottom=0;whiteSpace=wrap;html=1;" parent="WIyWlLk6GJQsqaUBKTNV-1" vertex="1">
          <mxGeometry x="-387.5" y="1310" width="190" height="240" as="geometry" />
        </mxCell>
        <mxCell id="-OgCu0V1GGCa8CGJmkHm-21" value="placa = AC50M" style="text;strokeColor=none;fillColor=none;align=left;verticalAlign=top;spacingLeft=4;spacingRight=4;overflow=hidden;rotatable=0;points=[[0,0.5],[1,0.5]];portConstraint=eastwest;whiteSpace=wrap;html=1;" parent="-OgCu0V1GGCa8CGJmkHm-20" vertex="1">
          <mxGeometry y="26" width="190" height="26" as="geometry" />
        </mxCell>
        <mxCell id="-OgCu0V1GGCa8CGJmkHm-23" value="acessoHoraCheia = false&lt;br&gt;&lt;br&gt;acessoDiariaDiurna = true&lt;br&gt;&lt;br&gt;acessoDiariaNoturna = false&lt;br&gt;&lt;br&gt;acessoMensalista = false&lt;br&gt;&lt;br&gt;acessoEvento = false&lt;br&gt;&lt;br&gt;valorTotal =&amp;nbsp;120.00" style="text;strokeColor=none;fillColor=none;align=left;verticalAlign=top;spacingLeft=4;spacingRight=4;overflow=hidden;rotatable=0;points=[[0,0.5],[1,0.5]];portConstraint=eastwest;whiteSpace=wrap;html=1;" parent="-OgCu0V1GGCa8CGJmkHm-20" vertex="1">
          <mxGeometry y="52" width="190" height="188" as="geometry" />
        </mxCell>
        <mxCell id="-OgCu0V1GGCa8CGJmkHm-25" value="&lt;b&gt;in1v1:Tempo&lt;/b&gt;" style="swimlane;fontStyle=0;childLayout=stackLayout;horizontal=1;startSize=26;fillColor=none;horizontalStack=0;resizeParent=1;resizeParentMax=0;resizeLast=0;collapsible=1;marginBottom=0;whiteSpace=wrap;html=1;" parent="WIyWlLk6GJQsqaUBKTNV-1" vertex="1">
          <mxGeometry x="-567.5" y="1500" width="140" height="80" as="geometry" />
        </mxCell>
        <mxCell id="-OgCu0V1GGCa8CGJmkHm-26" value="hora = 8&lt;br&gt;minuto = 0" style="text;strokeColor=none;fillColor=none;align=left;verticalAlign=top;spacingLeft=4;spacingRight=4;overflow=hidden;rotatable=0;points=[[0,0.5],[1,0.5]];portConstraint=eastwest;whiteSpace=wrap;html=1;" parent="-OgCu0V1GGCa8CGJmkHm-25" vertex="1">
          <mxGeometry y="26" width="140" height="54" as="geometry" />
        </mxCell>
        <mxCell id="-OgCu0V1GGCa8CGJmkHm-27" value="&lt;b&gt;out1v1:Tempo&lt;/b&gt;" style="swimlane;fontStyle=0;childLayout=stackLayout;horizontal=1;startSize=26;fillColor=none;horizontalStack=0;resizeParent=1;resizeParentMax=0;resizeLast=0;collapsible=1;marginBottom=0;whiteSpace=wrap;html=1;" parent="WIyWlLk6GJQsqaUBKTNV-1" vertex="1">
          <mxGeometry x="-157.5" y="1500" width="140" height="80" as="geometry" />
        </mxCell>
        <mxCell id="-OgCu0V1GGCa8CGJmkHm-28" value="hora = 18&lt;br&gt;minuto = 0" style="text;strokeColor=none;fillColor=none;align=left;verticalAlign=top;spacingLeft=4;spacingRight=4;overflow=hidden;rotatable=0;points=[[0,0.5],[1,0.5]];portConstraint=eastwest;whiteSpace=wrap;html=1;" parent="-OgCu0V1GGCa8CGJmkHm-27" vertex="1">
          <mxGeometry y="26" width="140" height="54" as="geometry" />
        </mxCell>
        <mxCell id="-OgCu0V1GGCa8CGJmkHm-40" value="" style="edgeStyle=none;orthogonalLoop=1;jettySize=auto;html=1;rounded=0;exitX=0.007;exitY=0.332;exitDx=0;exitDy=0;entryX=0.5;entryY=0;entryDx=0;entryDy=0;exitPerimeter=0;" parent="WIyWlLk6GJQsqaUBKTNV-1" source="-OgCu0V1GGCa8CGJmkHm-2" target="-OgCu0V1GGCa8CGJmkHm-18" edge="1">
          <mxGeometry width="80" relative="1" as="geometry">
            <mxPoint x="-177.5" y="1050" as="sourcePoint" />
            <mxPoint x="-127.5" y="1068" as="targetPoint" />
            <Array as="points">
              <mxPoint x="-117.5" y="1070" />
            </Array>
          </mxGeometry>
        </mxCell>
        <mxCell id="-OgCu0V1GGCa8CGJmkHm-42" value="" style="edgeStyle=none;orthogonalLoop=1;jettySize=auto;html=1;rounded=0;entryX=0.546;entryY=0.013;entryDx=0;entryDy=0;entryPerimeter=0;" parent="WIyWlLk6GJQsqaUBKTNV-1" target="-OgCu0V1GGCa8CGJmkHm-13" edge="1">
          <mxGeometry width="80" relative="1" as="geometry">
            <mxPoint x="192.5" y="1070" as="sourcePoint" />
            <mxPoint x="272.5" y="1070" as="targetPoint" />
            <Array as="points">
              <mxPoint x="298.5" y="1070" />
            </Array>
          </mxGeometry>
        </mxCell>
        <mxCell id="-OgCu0V1GGCa8CGJmkHm-44" value="" style="edgeStyle=none;orthogonalLoop=1;jettySize=auto;html=1;rounded=0;exitX=0.007;exitY=0.332;exitDx=0;exitDy=0;entryX=0.5;entryY=0;entryDx=0;entryDy=0;exitPerimeter=0;" parent="WIyWlLk6GJQsqaUBKTNV-1" target="-OgCu0V1GGCa8CGJmkHm-25" edge="1">
          <mxGeometry width="80" relative="1" as="geometry">
            <mxPoint x="-386.5" y="1420" as="sourcePoint" />
            <mxPoint x="-487.5" y="1500" as="targetPoint" />
            <Array as="points">
              <mxPoint x="-497.5" y="1420" />
            </Array>
          </mxGeometry>
        </mxCell>
        <mxCell id="-OgCu0V1GGCa8CGJmkHm-45" value="" style="edgeStyle=none;orthogonalLoop=1;jettySize=auto;html=1;rounded=0;exitX=1.013;exitY=0.314;exitDx=0;exitDy=0;entryX=0.5;entryY=0;entryDx=0;entryDy=0;exitPerimeter=0;" parent="WIyWlLk6GJQsqaUBKTNV-1" source="-OgCu0V1GGCa8CGJmkHm-23" target="-OgCu0V1GGCa8CGJmkHm-27" edge="1">
          <mxGeometry width="80" relative="1" as="geometry">
            <mxPoint x="93.5" y="1410" as="sourcePoint" />
            <mxPoint x="-67.5" y="1520" as="targetPoint" />
            <Array as="points">
              <mxPoint x="-87.5" y="1421" />
            </Array>
          </mxGeometry>
        </mxCell>
        <mxCell id="-OgCu0V1GGCa8CGJmkHm-46" value="" style="edgeStyle=none;orthogonalLoop=1;jettySize=auto;html=1;rounded=0;exitX=0.495;exitY=0.999;exitDx=0;exitDy=0;exitPerimeter=0;" parent="WIyWlLk6GJQsqaUBKTNV-1" source="-OgCu0V1GGCa8CGJmkHm-2" edge="1">
          <mxGeometry width="80" relative="1" as="geometry">
            <mxPoint x="72.5" y="1170" as="sourcePoint" />
            <mxPoint x="-287.5" y="1310" as="targetPoint" />
            <Array as="points">
              <mxPoint x="86.5" y="1270" />
              <mxPoint x="-287.5" y="1270" />
            </Array>
          </mxGeometry>
        </mxCell>
        <mxCell id="-OgCu0V1GGCa8CGJmkHm-47" value="&lt;b&gt;e1v2:Acesso&lt;/b&gt;" style="swimlane;fontStyle=0;childLayout=stackLayout;horizontal=1;startSize=26;fillColor=none;horizontalStack=0;resizeParent=1;resizeParentMax=0;resizeLast=0;collapsible=1;marginBottom=0;whiteSpace=wrap;html=1;" parent="WIyWlLk6GJQsqaUBKTNV-1" vertex="1">
          <mxGeometry x="372.5" y="1310" width="190" height="240" as="geometry" />
        </mxCell>
        <mxCell id="-OgCu0V1GGCa8CGJmkHm-48" value="placa =&amp;nbsp;RM3A9" style="text;strokeColor=none;fillColor=none;align=left;verticalAlign=top;spacingLeft=4;spacingRight=4;overflow=hidden;rotatable=0;points=[[0,0.5],[1,0.5]];portConstraint=eastwest;whiteSpace=wrap;html=1;" parent="-OgCu0V1GGCa8CGJmkHm-47" vertex="1">
          <mxGeometry y="26" width="190" height="26" as="geometry" />
        </mxCell>
        <mxCell id="-OgCu0V1GGCa8CGJmkHm-49" value="acessoHoraCheia = false&lt;br&gt;&lt;br&gt;acessoDiariaDiurna = false&lt;br&gt;&lt;br&gt;acessoDiariaNoturna = true&lt;br&gt;&lt;br&gt;acessoMensalista = false&lt;br&gt;&lt;br&gt;acessoEvento = false&lt;br&gt;&lt;br&gt;valorTotal =&amp;nbsp;54.00" style="text;strokeColor=none;fillColor=none;align=left;verticalAlign=top;spacingLeft=4;spacingRight=4;overflow=hidden;rotatable=0;points=[[0,0.5],[1,0.5]];portConstraint=eastwest;whiteSpace=wrap;html=1;" parent="-OgCu0V1GGCa8CGJmkHm-47" vertex="1">
          <mxGeometry y="52" width="190" height="188" as="geometry" />
        </mxCell>
        <mxCell id="-OgCu0V1GGCa8CGJmkHm-50" value="&lt;b&gt;in1v2:Tempo&lt;/b&gt;" style="swimlane;fontStyle=0;childLayout=stackLayout;horizontal=1;startSize=26;fillColor=none;horizontalStack=0;resizeParent=1;resizeParentMax=0;resizeLast=0;collapsible=1;marginBottom=0;whiteSpace=wrap;html=1;" parent="WIyWlLk6GJQsqaUBKTNV-1" vertex="1">
          <mxGeometry x="192.5" y="1500" width="140" height="80" as="geometry" />
        </mxCell>
        <mxCell id="-OgCu0V1GGCa8CGJmkHm-51" value="hora = 20&lt;br&gt;minuto = 0" style="text;strokeColor=none;fillColor=none;align=left;verticalAlign=top;spacingLeft=4;spacingRight=4;overflow=hidden;rotatable=0;points=[[0,0.5],[1,0.5]];portConstraint=eastwest;whiteSpace=wrap;html=1;" parent="-OgCu0V1GGCa8CGJmkHm-50" vertex="1">
          <mxGeometry y="26" width="140" height="54" as="geometry" />
        </mxCell>
        <mxCell id="-OgCu0V1GGCa8CGJmkHm-52" value="&lt;b&gt;out1v2:Tempo&lt;/b&gt;" style="swimlane;fontStyle=0;childLayout=stackLayout;horizontal=1;startSize=26;fillColor=none;horizontalStack=0;resizeParent=1;resizeParentMax=0;resizeLast=0;collapsible=1;marginBottom=0;whiteSpace=wrap;html=1;" parent="WIyWlLk6GJQsqaUBKTNV-1" vertex="1">
          <mxGeometry x="602.5" y="1500" width="140" height="80" as="geometry" />
        </mxCell>
        <mxCell id="-OgCu0V1GGCa8CGJmkHm-53" value="hora = 7&lt;br&gt;minuto = 0" style="text;strokeColor=none;fillColor=none;align=left;verticalAlign=top;spacingLeft=4;spacingRight=4;overflow=hidden;rotatable=0;points=[[0,0.5],[1,0.5]];portConstraint=eastwest;whiteSpace=wrap;html=1;" parent="-OgCu0V1GGCa8CGJmkHm-52" vertex="1">
          <mxGeometry y="26" width="140" height="54" as="geometry" />
        </mxCell>
        <mxCell id="-OgCu0V1GGCa8CGJmkHm-54" value="" style="edgeStyle=none;orthogonalLoop=1;jettySize=auto;html=1;rounded=0;exitX=0.007;exitY=0.332;exitDx=0;exitDy=0;entryX=0.5;entryY=0;entryDx=0;entryDy=0;exitPerimeter=0;" parent="WIyWlLk6GJQsqaUBKTNV-1" target="-OgCu0V1GGCa8CGJmkHm-50" edge="1">
          <mxGeometry width="80" relative="1" as="geometry">
            <mxPoint x="373.5" y="1420" as="sourcePoint" />
            <mxPoint x="272.5" y="1500" as="targetPoint" />
            <Array as="points">
              <mxPoint x="262.5" y="1420" />
            </Array>
          </mxGeometry>
        </mxCell>
        <mxCell id="-OgCu0V1GGCa8CGJmkHm-55" value="" style="edgeStyle=none;orthogonalLoop=1;jettySize=auto;html=1;rounded=0;exitX=1.013;exitY=0.314;exitDx=0;exitDy=0;entryX=0.5;entryY=0;entryDx=0;entryDy=0;exitPerimeter=0;" parent="WIyWlLk6GJQsqaUBKTNV-1" source="-OgCu0V1GGCa8CGJmkHm-49" target="-OgCu0V1GGCa8CGJmkHm-52" edge="1">
          <mxGeometry width="80" relative="1" as="geometry">
            <mxPoint x="853.5" y="1410" as="sourcePoint" />
            <mxPoint x="692.5" y="1520" as="targetPoint" />
            <Array as="points">
              <mxPoint x="672.5" y="1421" />
            </Array>
          </mxGeometry>
        </mxCell>
        <mxCell id="-OgCu0V1GGCa8CGJmkHm-56" value="" style="edgeStyle=none;orthogonalLoop=1;jettySize=auto;html=1;rounded=0;exitX=0.495;exitY=0.992;exitDx=0;exitDy=0;exitPerimeter=0;" parent="WIyWlLk6GJQsqaUBKTNV-1" source="-OgCu0V1GGCa8CGJmkHm-2" edge="1">
          <mxGeometry width="80" relative="1" as="geometry">
            <mxPoint x="562.5" y="1190" as="sourcePoint" />
            <mxPoint x="472.5" y="1310" as="targetPoint" />
            <Array as="points">
              <mxPoint x="87.5" y="1270" />
              <mxPoint x="472.5" y="1270" />
            </Array>
          </mxGeometry>
        </mxCell>
        <mxCell id="igS4MY7iavCe2Ax2GVKu-6" value="&lt;br/&gt;" style="shape=folder;fontStyle=1;spacingTop=10;tabWidth=55;tabHeight=12;tabPosition=left;html=1;whiteSpace=wrap;" vertex="1" parent="WIyWlLk6GJQsqaUBKTNV-1">
          <mxGeometry x="370" y="50" width="920" height="790" as="geometry" />
        </mxCell>
        <mxCell id="JOkifr1oODBdmEb68XJE-0" value="Estacionamento" style="swimlane;fontStyle=1;align=center;verticalAlign=top;childLayout=stackLayout;horizontal=1;startSize=26;horizontalStack=0;resizeParent=1;resizeLast=0;collapsible=1;marginBottom=0;rounded=0;shadow=0;strokeWidth=1;" parent="WIyWlLk6GJQsqaUBKTNV-1" vertex="1">
          <mxGeometry x="700" y="72" width="260" height="254" as="geometry">
            <mxRectangle x="230" y="140" width="160" height="26" as="alternateBounds" />
          </mxGeometry>
        </mxCell>
        <mxCell id="JOkifr1oODBdmEb68XJE-3" value="- valorPorcentagemContratante: Double" style="text;align=left;verticalAlign=top;spacingLeft=4;spacingRight=4;overflow=hidden;rotatable=0;points=[[0,0.5],[1,0.5]];portConstraint=eastwest;rounded=0;shadow=0;html=0;" parent="JOkifr1oODBdmEb68XJE-0" vertex="1">
          <mxGeometry y="26" width="260" height="22" as="geometry" />
        </mxCell>
        <mxCell id="JOkifr1oODBdmEb68XJE-4" value="- capacidadeEstacionamento: int&#xa;&#xa;- valorDescontoHc: Double&#xa;&#xa;- acessoFracao: int&#xa;&#xa;" style="text;align=left;verticalAlign=top;spacingLeft=4;spacingRight=4;overflow=hidden;rotatable=0;points=[[0,0.5],[1,0.5]];portConstraint=eastwest;" parent="JOkifr1oODBdmEb68XJE-0" vertex="1">
          <mxGeometry y="48" width="260" height="88" as="geometry" />
        </mxCell>
        <mxCell id="JOkifr1oODBdmEb68XJE-5" value="" style="line;html=1;strokeWidth=1;align=left;verticalAlign=middle;spacingTop=-1;spacingLeft=3;spacingRight=3;rotatable=0;labelPosition=right;points=[];portConstraint=eastwest;" parent="JOkifr1oODBdmEb68XJE-0" vertex="1">
          <mxGeometry y="136" width="260" height="20" as="geometry" />
        </mxCell>
        <mxCell id="JOkifr1oODBdmEb68XJE-6" value="+ validarValoresAcessos(): boolean" style="text;align=left;verticalAlign=top;spacingLeft=4;spacingRight=4;overflow=hidden;rotatable=0;points=[[0,0.5],[1,0.5]];portConstraint=eastwest;" parent="JOkifr1oODBdmEb68XJE-0" vertex="1">
          <mxGeometry y="156" width="260" height="26" as="geometry" />
        </mxCell>
        <mxCell id="Fjwu1mslKrQqyUhCAYK0-28" value="+ descricaoEmBrancoException(): bollean" style="text;align=left;verticalAlign=top;spacingLeft=4;spacingRight=4;overflow=hidden;rotatable=0;points=[[0,0.5],[1,0.5]];portConstraint=eastwest;" parent="JOkifr1oODBdmEb68XJE-0" vertex="1">
          <mxGeometry y="182" width="260" height="26" as="geometry" />
        </mxCell>
        <mxCell id="LIMe-sIAQ6IzgV3gAZ-s-6" value="&lt;div style=&quot;border-color: var(--border-color); padding: 0px; margin: 0px;&quot;&gt;+ calcularValorContratante(vE: valorEstacionamento, rCP): Double&lt;br style=&quot;border-color: var(--border-color); padding: 0px; margin: 0px;&quot;&gt;&lt;/div&gt;" style="text;strokeColor=none;fillColor=none;align=left;verticalAlign=top;spacingLeft=4;spacingRight=4;overflow=hidden;rotatable=0;points=[[0,0.5],[1,0.5]];portConstraint=eastwest;whiteSpace=wrap;html=1;" parent="JOkifr1oODBdmEb68XJE-0" vertex="1">
          <mxGeometry y="208" width="260" height="42" as="geometry" />
        </mxCell>
        <mxCell id="JOkifr1oODBdmEb68XJE-7" value="Acesso" style="swimlane;fontStyle=1;align=center;verticalAlign=top;childLayout=stackLayout;horizontal=1;startSize=26;horizontalStack=0;resizeParent=1;resizeLast=0;collapsible=1;marginBottom=0;rounded=0;shadow=0;strokeWidth=1;" parent="WIyWlLk6GJQsqaUBKTNV-1" vertex="1">
          <mxGeometry x="390" y="480" width="880" height="348" as="geometry">
            <mxRectangle x="620" y="330" width="160" height="26" as="alternateBounds" />
          </mxGeometry>
        </mxCell>
        <mxCell id="JOkifr1oODBdmEb68XJE-8" value="- placa: String" style="text;align=left;verticalAlign=top;spacingLeft=4;spacingRight=4;overflow=hidden;rotatable=0;points=[[0,0.5],[1,0.5]];portConstraint=eastwest;" parent="JOkifr1oODBdmEb68XJE-7" vertex="1">
          <mxGeometry y="26" width="880" height="26" as="geometry" />
        </mxCell>
        <mxCell id="Fjwu1mslKrQqyUhCAYK0-14" value="- acessoHoraCheia: boolean" style="text;align=left;verticalAlign=top;spacingLeft=4;spacingRight=4;overflow=hidden;rotatable=0;points=[[0,0.5],[1,0.5]];portConstraint=eastwest;" parent="JOkifr1oODBdmEb68XJE-7" vertex="1">
          <mxGeometry y="52" width="880" height="26" as="geometry" />
        </mxCell>
        <mxCell id="Fjwu1mslKrQqyUhCAYK0-16" value="- acessoDiariaDiurna: boolean" style="text;align=left;verticalAlign=top;spacingLeft=4;spacingRight=4;overflow=hidden;rotatable=0;points=[[0,0.5],[1,0.5]];portConstraint=eastwest;" parent="JOkifr1oODBdmEb68XJE-7" vertex="1">
          <mxGeometry y="78" width="880" height="26" as="geometry" />
        </mxCell>
        <mxCell id="Fjwu1mslKrQqyUhCAYK0-15" value="- acessoDiariaNotuna: boolean" style="text;align=left;verticalAlign=top;spacingLeft=4;spacingRight=4;overflow=hidden;rotatable=0;points=[[0,0.5],[1,0.5]];portConstraint=eastwest;" parent="JOkifr1oODBdmEb68XJE-7" vertex="1">
          <mxGeometry y="104" width="880" height="26" as="geometry" />
        </mxCell>
        <mxCell id="Fjwu1mslKrQqyUhCAYK0-17" value="- acessoMensalista: boolean" style="text;align=left;verticalAlign=top;spacingLeft=4;spacingRight=4;overflow=hidden;rotatable=0;points=[[0,0.5],[1,0.5]];portConstraint=eastwest;" parent="JOkifr1oODBdmEb68XJE-7" vertex="1">
          <mxGeometry y="130" width="880" height="26" as="geometry" />
        </mxCell>
        <mxCell id="Fjwu1mslKrQqyUhCAYK0-18" value="- acessoEvento: boolean&#xa;&#xa;- valorAcesso: Double&#xa;&#xa;" style="text;align=left;verticalAlign=top;spacingLeft=4;spacingRight=4;overflow=hidden;rotatable=0;points=[[0,0.5],[1,0.5]];portConstraint=eastwest;" parent="JOkifr1oODBdmEb68XJE-7" vertex="1">
          <mxGeometry y="156" width="880" height="54" as="geometry" />
        </mxCell>
        <mxCell id="JOkifr1oODBdmEb68XJE-11" value="" style="line;html=1;strokeWidth=1;align=left;verticalAlign=middle;spacingTop=-1;spacingLeft=3;spacingRight=3;rotatable=0;labelPosition=right;points=[];portConstraint=eastwest;" parent="JOkifr1oODBdmEb68XJE-7" vertex="1">
          <mxGeometry y="210" width="880" height="8" as="geometry" />
        </mxCell>
        <mxCell id="JOkifr1oODBdmEb68XJE-12" value="+ validarCampos(): boolean" style="text;align=left;verticalAlign=top;spacingLeft=4;spacingRight=4;overflow=hidden;rotatable=0;points=[[0,0.5],[1,0.5]];portConstraint=eastwest;" parent="JOkifr1oODBdmEb68XJE-7" vertex="1">
          <mxGeometry y="218" width="880" height="26" as="geometry" />
        </mxCell>
        <mxCell id="Fjwu1mslKrQqyUhCAYK0-26" value="+ descricaoEmBrancoException(): bollean" style="text;align=left;verticalAlign=top;spacingLeft=4;spacingRight=4;overflow=hidden;rotatable=0;points=[[0,0.5],[1,0.5]];portConstraint=eastwest;" parent="JOkifr1oODBdmEb68XJE-7" vertex="1">
          <mxGeometry y="244" width="880" height="26" as="geometry" />
        </mxCell>
        <mxCell id="Fjwu1mslKrQqyUhCAYK0-27" value="+ valorAcessoInvalidoException(): bollean" style="text;align=left;verticalAlign=top;spacingLeft=4;spacingRight=4;overflow=hidden;rotatable=0;points=[[0,0.5],[1,0.5]];portConstraint=eastwest;" parent="JOkifr1oODBdmEb68XJE-7" vertex="1">
          <mxGeometry y="270" width="880" height="26" as="geometry" />
        </mxCell>
        <mxCell id="Fjwu1mslKrQqyUhCAYK0-19" value="+ calcularPreco(aF: acessoFracao, aHC: acessoHoraCheia, aDD: acessoHoraDiuna, aDN: acessoHoraNoturna, aM: acessoMensalista, aE: acessoEvento): double&#xa;" style="text;align=left;verticalAlign=top;spacingLeft=4;spacingRight=4;overflow=hidden;rotatable=0;points=[[0,0.5],[1,0.5]];portConstraint=eastwest;" parent="JOkifr1oODBdmEb68XJE-7" vertex="1">
          <mxGeometry y="296" width="880" height="26" as="geometry" />
        </mxCell>
        <mxCell id="JOkifr1oODBdmEb68XJE-42" value="Tempo" style="swimlane;fontStyle=1;align=center;verticalAlign=top;childLayout=stackLayout;horizontal=1;startSize=26;horizontalStack=0;resizeParent=1;resizeLast=0;collapsible=1;marginBottom=0;rounded=0;shadow=0;strokeWidth=1;" parent="WIyWlLk6GJQsqaUBKTNV-1" vertex="1">
          <mxGeometry x="1090" y="220" width="170" height="120" as="geometry">
            <mxRectangle x="130" y="380" width="160" height="26" as="alternateBounds" />
          </mxGeometry>
        </mxCell>
        <mxCell id="JOkifr1oODBdmEb68XJE-43" value="- hora: int" style="text;align=left;verticalAlign=top;spacingLeft=4;spacingRight=4;overflow=hidden;rotatable=0;points=[[0,0.5],[1,0.5]];portConstraint=eastwest;" parent="JOkifr1oODBdmEb68XJE-42" vertex="1">
          <mxGeometry y="26" width="170" height="26" as="geometry" />
        </mxCell>
        <mxCell id="JOkifr1oODBdmEb68XJE-44" value="- minuto: int" style="text;align=left;verticalAlign=top;spacingLeft=4;spacingRight=4;overflow=hidden;rotatable=0;points=[[0,0.5],[1,0.5]];portConstraint=eastwest;rounded=0;shadow=0;html=0;" parent="JOkifr1oODBdmEb68XJE-42" vertex="1">
          <mxGeometry y="52" width="170" height="26" as="geometry" />
        </mxCell>
        <mxCell id="JOkifr1oODBdmEb68XJE-45" value="" style="line;html=1;strokeWidth=1;align=left;verticalAlign=middle;spacingTop=-1;spacingLeft=3;spacingRight=3;rotatable=0;labelPosition=right;points=[];portConstraint=eastwest;" parent="JOkifr1oODBdmEb68XJE-42" vertex="1">
          <mxGeometry y="78" width="170" height="8" as="geometry" />
        </mxCell>
        <mxCell id="JOkifr1oODBdmEb68XJE-46" value="+ converterHoraMinuto(): int" style="text;align=left;verticalAlign=top;spacingLeft=4;spacingRight=4;overflow=hidden;rotatable=0;points=[[0,0.5],[1,0.5]];portConstraint=eastwest;" parent="JOkifr1oODBdmEb68XJE-42" vertex="1">
          <mxGeometry y="86" width="170" height="26" as="geometry" />
        </mxCell>
        <mxCell id="JOkifr1oODBdmEb68XJE-47" value="" style="endArrow=none;html=1;rounded=0;exitX=0;exitY=0.5;exitDx=0;exitDy=0;" parent="WIyWlLk6GJQsqaUBKTNV-1" source="JOkifr1oODBdmEb68XJE-49" edge="1">
          <mxGeometry width="50" height="50" relative="1" as="geometry">
            <mxPoint x="910" y="328" as="sourcePoint" />
            <mxPoint x="960" y="183" as="targetPoint" />
            <Array as="points" />
          </mxGeometry>
        </mxCell>
        <mxCell id="JOkifr1oODBdmEb68XJE-49" value="- horarioAbertura&lt;br&gt;- horarioEncerramento" style="text;html=1;strokeColor=none;fillColor=none;align=center;verticalAlign=middle;whiteSpace=wrap;rounded=0;" parent="WIyWlLk6GJQsqaUBKTNV-1" vertex="1">
          <mxGeometry x="1010" y="173" width="140" height="20" as="geometry" />
        </mxCell>
        <mxCell id="JOkifr1oODBdmEb68XJE-50" value="- valoresAcessos" style="text;html=1;strokeColor=none;fillColor=none;align=center;verticalAlign=middle;whiteSpace=wrap;rounded=0;" parent="WIyWlLk6GJQsqaUBKTNV-1" vertex="1">
          <mxGeometry x="560" y="173" width="100" height="30" as="geometry" />
        </mxCell>
        <mxCell id="JOkifr1oODBdmEb68XJE-51" value="" style="endArrow=none;html=1;rounded=0;exitX=1;exitY=0.5;exitDx=0;exitDy=0;" parent="WIyWlLk6GJQsqaUBKTNV-1" source="JOkifr1oODBdmEb68XJE-50" edge="1">
          <mxGeometry width="50" height="50" relative="1" as="geometry">
            <mxPoint x="680" y="188" as="sourcePoint" />
            <mxPoint x="700" y="188" as="targetPoint" />
          </mxGeometry>
        </mxCell>
        <mxCell id="JOkifr1oODBdmEb68XJE-52" value="- acessoEspecíficoEstacionamento" style="text;html=1;strokeColor=none;fillColor=none;align=center;verticalAlign=middle;whiteSpace=wrap;rounded=0;" parent="WIyWlLk6GJQsqaUBKTNV-1" vertex="1">
          <mxGeometry x="730" y="350" width="200" height="30" as="geometry" />
        </mxCell>
        <mxCell id="JOkifr1oODBdmEb68XJE-60" value="-&amp;nbsp; acessoEspecifico" style="text;html=1;strokeColor=none;fillColor=none;align=center;verticalAlign=middle;whiteSpace=wrap;rounded=0;" parent="WIyWlLk6GJQsqaUBKTNV-1" vertex="1">
          <mxGeometry x="495" y="400" width="110" height="20" as="geometry" />
        </mxCell>
        <mxCell id="JOkifr1oODBdmEb68XJE-61" value="" style="endArrow=none;html=1;rounded=0;entryX=0.5;entryY=0;entryDx=0;entryDy=0;exitX=0.5;exitY=1;exitDx=0;exitDy=0;" parent="WIyWlLk6GJQsqaUBKTNV-1" source="JOkifr1oODBdmEb68XJE-52" target="JOkifr1oODBdmEb68XJE-7" edge="1">
          <mxGeometry width="50" height="50" relative="1" as="geometry">
            <mxPoint x="780" y="368" as="sourcePoint" />
            <mxPoint x="764.66" y="398" as="targetPoint" />
            <Array as="points" />
          </mxGeometry>
        </mxCell>
        <mxCell id="JOkifr1oODBdmEb68XJE-62" value="" style="endArrow=classic;html=1;rounded=0;exitX=0.5;exitY=0;exitDx=0;exitDy=0;entryX=0.5;entryY=1;entryDx=0;entryDy=0;" parent="WIyWlLk6GJQsqaUBKTNV-1" edge="1" target="JOkifr1oODBdmEb68XJE-0" source="JOkifr1oODBdmEb68XJE-52">
          <mxGeometry width="50" height="50" relative="1" as="geometry">
            <mxPoint x="829.88" y="316" as="sourcePoint" />
            <mxPoint x="830" y="330" as="targetPoint" />
            <Array as="points">
              <mxPoint x="830" y="350" />
            </Array>
          </mxGeometry>
        </mxCell>
        <mxCell id="JOkifr1oODBdmEb68XJE-71" value="" style="endArrow=none;html=1;rounded=0;entryX=0.5;entryY=1;entryDx=0;entryDy=0;exitX=0.182;exitY=0;exitDx=0;exitDy=0;exitPerimeter=0;" parent="WIyWlLk6GJQsqaUBKTNV-1" target="JOkifr1oODBdmEb68XJE-60" edge="1" source="JOkifr1oODBdmEb68XJE-7">
          <mxGeometry width="50" height="50" relative="1" as="geometry">
            <mxPoint x="549" y="480" as="sourcePoint" />
            <mxPoint x="550" y="310" as="targetPoint" />
            <Array as="points" />
          </mxGeometry>
        </mxCell>
        <mxCell id="JOkifr1oODBdmEb68XJE-72" value="" style="endArrow=classic;html=1;rounded=0;entryX=0.5;entryY=1;entryDx=0;entryDy=0;exitX=0.5;exitY=0;exitDx=0;exitDy=0;" parent="WIyWlLk6GJQsqaUBKTNV-1" source="JOkifr1oODBdmEb68XJE-60" target="JOkifr1oODBdmEb68XJE-73" edge="1">
          <mxGeometry width="50" height="50" relative="1" as="geometry">
            <mxPoint x="480" y="518" as="sourcePoint" />
            <mxPoint x="470" y="428" as="targetPoint" />
          </mxGeometry>
        </mxCell>
        <mxCell id="JOkifr1oODBdmEb68XJE-73" value="TipoAcesso" style="swimlane;fontStyle=1;align=center;verticalAlign=top;childLayout=stackLayout;horizontal=1;startSize=26;horizontalStack=0;resizeParent=1;resizeLast=0;collapsible=1;marginBottom=0;rounded=0;shadow=0;strokeWidth=1;" parent="WIyWlLk6GJQsqaUBKTNV-1" vertex="1">
          <mxGeometry x="490" y="278" width="120" height="80" as="geometry">
            <mxRectangle x="550" y="140" width="160" height="26" as="alternateBounds" />
          </mxGeometry>
        </mxCell>
        <mxCell id="JOkifr1oODBdmEb68XJE-74" value="- descricao: String" style="text;align=left;verticalAlign=top;spacingLeft=4;spacingRight=4;overflow=hidden;rotatable=0;points=[[0,0.5],[1,0.5]];portConstraint=eastwest;" parent="JOkifr1oODBdmEb68XJE-73" vertex="1">
          <mxGeometry y="26" width="120" height="26" as="geometry" />
        </mxCell>
        <mxCell id="JOkifr1oODBdmEb68XJE-75" value="" style="line;html=1;strokeWidth=1;align=left;verticalAlign=middle;spacingTop=-1;spacingLeft=3;spacingRight=3;rotatable=0;labelPosition=right;points=[];portConstraint=eastwest;" parent="JOkifr1oODBdmEb68XJE-73" vertex="1">
          <mxGeometry y="52" width="120" height="8" as="geometry" />
        </mxCell>
        <mxCell id="JOkifr1oODBdmEb68XJE-76" style="edgeStyle=orthogonalEdgeStyle;rounded=0;orthogonalLoop=1;jettySize=auto;html=1;exitX=1;exitY=0.5;exitDx=0;exitDy=0;" parent="JOkifr1oODBdmEb68XJE-73" source="JOkifr1oODBdmEb68XJE-74" target="JOkifr1oODBdmEb68XJE-74" edge="1">
          <mxGeometry relative="1" as="geometry" />
        </mxCell>
        <mxCell id="Fjwu1mslKrQqyUhCAYK0-1" value="" style="endArrow=classic;html=1;rounded=0;exitX=1;exitY=0.5;exitDx=0;exitDy=0;entryX=0.25;entryY=1;entryDx=0;entryDy=0;" parent="WIyWlLk6GJQsqaUBKTNV-1" source="Fjwu1mslKrQqyUhCAYK0-3" target="JOkifr1oODBdmEb68XJE-42" edge="1">
          <mxGeometry width="50" height="50" relative="1" as="geometry">
            <mxPoint x="950" y="518" as="sourcePoint" />
            <mxPoint x="1000" y="468" as="targetPoint" />
            <Array as="points">
              <mxPoint x="1133" y="380" />
            </Array>
          </mxGeometry>
        </mxCell>
        <mxCell id="Fjwu1mslKrQqyUhCAYK0-2" value="" style="endArrow=classic;html=1;rounded=0;exitX=1;exitY=0.5;exitDx=0;exitDy=0;" parent="WIyWlLk6GJQsqaUBKTNV-1" source="Fjwu1mslKrQqyUhCAYK0-6" edge="1">
          <mxGeometry width="50" height="50" relative="1" as="geometry">
            <mxPoint x="910" y="507" as="sourcePoint" />
            <mxPoint x="1220" y="340" as="targetPoint" />
            <Array as="points">
              <mxPoint x="1220" y="431" />
              <mxPoint x="1220" y="370" />
            </Array>
          </mxGeometry>
        </mxCell>
        <mxCell id="Fjwu1mslKrQqyUhCAYK0-3" value="&lt;div&gt;- horarioEntrada&lt;/div&gt;" style="text;html=1;strokeColor=none;fillColor=none;align=center;verticalAlign=middle;whiteSpace=wrap;rounded=0;" parent="WIyWlLk6GJQsqaUBKTNV-1" vertex="1">
          <mxGeometry x="990" y="364" width="90" height="30" as="geometry" />
        </mxCell>
        <mxCell id="Fjwu1mslKrQqyUhCAYK0-6" value="- horarioSaida" style="text;html=1;strokeColor=none;fillColor=none;align=center;verticalAlign=middle;whiteSpace=wrap;rounded=0;" parent="WIyWlLk6GJQsqaUBKTNV-1" vertex="1">
          <mxGeometry x="1060" y="416" width="80" height="30" as="geometry" />
        </mxCell>
        <mxCell id="Fjwu1mslKrQqyUhCAYK0-11" value="" style="endArrow=classic;html=1;rounded=0;entryX=0.5;entryY=0;entryDx=0;entryDy=0;exitX=1;exitY=0.5;exitDx=0;exitDy=0;" parent="WIyWlLk6GJQsqaUBKTNV-1" source="JOkifr1oODBdmEb68XJE-49" target="JOkifr1oODBdmEb68XJE-42" edge="1">
          <mxGeometry width="50" height="50" relative="1" as="geometry">
            <mxPoint x="870" y="398" as="sourcePoint" />
            <mxPoint x="920" y="348" as="targetPoint" />
            <Array as="points">
              <mxPoint x="1175" y="183" />
            </Array>
          </mxGeometry>
        </mxCell>
        <mxCell id="Fjwu1mslKrQqyUhCAYK0-12" value="" style="endArrow=classic;html=1;rounded=0;entryX=0.5;entryY=0;entryDx=0;entryDy=0;exitX=0;exitY=0.5;exitDx=0;exitDy=0;" parent="WIyWlLk6GJQsqaUBKTNV-1" source="JOkifr1oODBdmEb68XJE-50" target="JOkifr1oODBdmEb68XJE-73" edge="1">
          <mxGeometry width="50" height="50" relative="1" as="geometry">
            <mxPoint x="860" y="358" as="sourcePoint" />
            <mxPoint x="570" y="258" as="targetPoint" />
            <Array as="points">
              <mxPoint x="550" y="188" />
            </Array>
          </mxGeometry>
        </mxCell>
        <mxCell id="Fjwu1mslKrQqyUhCAYK0-24" value="" style="endArrow=none;html=1;rounded=0;entryX=0;entryY=0.5;entryDx=0;entryDy=0;exitX=0.644;exitY=-0.005;exitDx=0;exitDy=0;exitPerimeter=0;" parent="WIyWlLk6GJQsqaUBKTNV-1" source="JOkifr1oODBdmEb68XJE-7" target="Fjwu1mslKrQqyUhCAYK0-3" edge="1">
          <mxGeometry width="50" height="50" relative="1" as="geometry">
            <mxPoint x="950" y="400" as="sourcePoint" />
            <mxPoint x="1000" y="350" as="targetPoint" />
            <Array as="points">
              <mxPoint x="957" y="379" />
            </Array>
          </mxGeometry>
        </mxCell>
        <mxCell id="TYavUjJfIlVdrUG1dmR8-0" value="&lt;b&gt;&lt;font face=&quot;Times New Roman&quot; style=&quot;font-size: 18px;&quot;&gt;DIAGRAMA DE CLASSES&amp;nbsp;&lt;/font&gt;&lt;/b&gt;" style="text;strokeColor=none;align=center;fillColor=none;html=1;verticalAlign=middle;whiteSpace=wrap;rounded=0;" parent="WIyWlLk6GJQsqaUBKTNV-1" vertex="1">
          <mxGeometry x="670" y="20" width="320" height="30" as="geometry" />
        </mxCell>
        <mxCell id="Fjwu1mslKrQqyUhCAYK0-25" value="" style="endArrow=none;html=1;rounded=0;entryX=0;entryY=0.5;entryDx=0;entryDy=0;exitX=0.705;exitY=0;exitDx=0;exitDy=0;exitPerimeter=0;" parent="WIyWlLk6GJQsqaUBKTNV-1" source="JOkifr1oODBdmEb68XJE-7" target="Fjwu1mslKrQqyUhCAYK0-6" edge="1">
          <mxGeometry width="50" height="50" relative="1" as="geometry">
            <mxPoint x="1030" y="460" as="sourcePoint" />
            <mxPoint x="1043" y="430" as="targetPoint" />
            <Array as="points">
              <mxPoint x="1010" y="431" />
            </Array>
          </mxGeometry>
        </mxCell>
        <mxCell id="igS4MY7iavCe2Ax2GVKu-8" value="Gerência" style="text;html=1;strokeColor=none;fillColor=none;align=center;verticalAlign=middle;whiteSpace=wrap;rounded=0;fontSize=10;" vertex="1" parent="WIyWlLk6GJQsqaUBKTNV-1">
          <mxGeometry x="390" y="42" width="40" height="30" as="geometry" />
        </mxCell>
        <mxCell id="igS4MY7iavCe2Ax2GVKu-9" value="&lt;b&gt;e2: Estacionamento&lt;/b&gt;" style="swimlane;fontStyle=0;childLayout=stackLayout;horizontal=1;startSize=26;fillColor=none;horizontalStack=0;resizeParent=1;resizeParentMax=0;resizeLast=0;collapsible=1;marginBottom=0;whiteSpace=wrap;html=1;" vertex="1" parent="WIyWlLk6GJQsqaUBKTNV-1">
          <mxGeometry x="1517.5" y="990" width="210" height="190" as="geometry" />
        </mxCell>
        <mxCell id="igS4MY7iavCe2Ax2GVKu-10" value="valorPorcentagemContratante&lt;span style=&quot;&quot;&gt; &lt;/span&gt;= 0.6&lt;br&gt;&lt;br&gt;&lt;div&gt;capacidadeEstacionamento = 120&lt;/div&gt;&lt;div&gt;&lt;br&gt;&lt;/div&gt;&lt;div&gt;valorDescontoHc = 0.10&lt;br&gt;&lt;/div&gt;&lt;br&gt;&lt;div&gt;acessoFracao = 20&lt;br&gt;&lt;/div&gt;&lt;div&gt;&lt;br&gt;&lt;/div&gt;" style="text;strokeColor=none;fillColor=none;align=left;verticalAlign=top;spacingLeft=4;spacingRight=4;overflow=hidden;rotatable=0;points=[[0,0.5],[1,0.5]];portConstraint=eastwest;whiteSpace=wrap;html=1;" vertex="1" parent="igS4MY7iavCe2Ax2GVKu-9">
          <mxGeometry y="26" width="210" height="164" as="geometry" />
        </mxCell>
        <mxCell id="igS4MY7iavCe2Ax2GVKu-11" value="&lt;b&gt;close2:Tempo&lt;/b&gt;" style="swimlane;fontStyle=0;childLayout=stackLayout;horizontal=1;startSize=26;fillColor=none;horizontalStack=0;resizeParent=1;resizeParentMax=0;resizeLast=0;collapsible=1;marginBottom=0;whiteSpace=wrap;html=1;" vertex="1" parent="WIyWlLk6GJQsqaUBKTNV-1">
          <mxGeometry x="1757.5" y="1150" width="140" height="80" as="geometry" />
        </mxCell>
        <mxCell id="igS4MY7iavCe2Ax2GVKu-12" value="hora = 24&lt;br&gt;&lt;br&gt;minuto = 0" style="text;strokeColor=none;fillColor=none;align=left;verticalAlign=top;spacingLeft=4;spacingRight=4;overflow=hidden;rotatable=0;points=[[0,0.5],[1,0.5]];portConstraint=eastwest;whiteSpace=wrap;html=1;" vertex="1" parent="igS4MY7iavCe2Ax2GVKu-11">
          <mxGeometry y="26" width="140" height="54" as="geometry" />
        </mxCell>
        <mxCell id="igS4MY7iavCe2Ax2GVKu-13" value="&lt;b&gt;open2:Tempo&lt;/b&gt;" style="swimlane;fontStyle=0;childLayout=stackLayout;horizontal=1;startSize=26;fillColor=none;horizontalStack=0;resizeParent=1;resizeParentMax=0;resizeLast=0;collapsible=1;marginBottom=0;whiteSpace=wrap;html=1;" vertex="1" parent="WIyWlLk6GJQsqaUBKTNV-1">
          <mxGeometry x="1347.5" y="1150" width="140" height="80" as="geometry" />
        </mxCell>
        <mxCell id="igS4MY7iavCe2Ax2GVKu-14" value="hora = 0&lt;br&gt;&lt;br&gt;minuto = 0" style="text;strokeColor=none;fillColor=none;align=left;verticalAlign=top;spacingLeft=4;spacingRight=4;overflow=hidden;rotatable=0;points=[[0,0.5],[1,0.5]];portConstraint=eastwest;whiteSpace=wrap;html=1;" vertex="1" parent="igS4MY7iavCe2Ax2GVKu-13">
          <mxGeometry y="26" width="140" height="54" as="geometry" />
        </mxCell>
        <mxCell id="igS4MY7iavCe2Ax2GVKu-15" value="&lt;b&gt;e2v1:Acesso&lt;/b&gt;" style="swimlane;fontStyle=0;childLayout=stackLayout;horizontal=1;startSize=26;fillColor=none;horizontalStack=0;resizeParent=1;resizeParentMax=0;resizeLast=0;collapsible=1;marginBottom=0;whiteSpace=wrap;html=1;" vertex="1" parent="WIyWlLk6GJQsqaUBKTNV-1">
          <mxGeometry x="1147.5" y="1310" width="190" height="240" as="geometry" />
        </mxCell>
        <mxCell id="igS4MY7iavCe2Ax2GVKu-16" value="placa = HI139" style="text;strokeColor=none;fillColor=none;align=left;verticalAlign=top;spacingLeft=4;spacingRight=4;overflow=hidden;rotatable=0;points=[[0,0.5],[1,0.5]];portConstraint=eastwest;whiteSpace=wrap;html=1;" vertex="1" parent="igS4MY7iavCe2Ax2GVKu-15">
          <mxGeometry y="26" width="190" height="26" as="geometry" />
        </mxCell>
        <mxCell id="igS4MY7iavCe2Ax2GVKu-17" value="acessoHoraCheia = true&lt;br&gt;&lt;br&gt;acessoDiariaDiurna = false&lt;br&gt;&lt;br&gt;acessoDiariaNoturna = false&lt;br&gt;&lt;br&gt;acessoMensalista = false&lt;br&gt;&lt;br&gt;acessoEvento = false&lt;br&gt;&lt;br&gt;valorTotal = 72.00" style="text;strokeColor=none;fillColor=none;align=left;verticalAlign=top;spacingLeft=4;spacingRight=4;overflow=hidden;rotatable=0;points=[[0,0.5],[1,0.5]];portConstraint=eastwest;whiteSpace=wrap;html=1;" vertex="1" parent="igS4MY7iavCe2Ax2GVKu-15">
          <mxGeometry y="52" width="190" height="188" as="geometry" />
        </mxCell>
        <mxCell id="igS4MY7iavCe2Ax2GVKu-18" value="&lt;b&gt;in2v1:Tempo&lt;/b&gt;" style="swimlane;fontStyle=0;childLayout=stackLayout;horizontal=1;startSize=26;fillColor=none;horizontalStack=0;resizeParent=1;resizeParentMax=0;resizeLast=0;collapsible=1;marginBottom=0;whiteSpace=wrap;html=1;" vertex="1" parent="WIyWlLk6GJQsqaUBKTNV-1">
          <mxGeometry x="967.5" y="1500" width="140" height="80" as="geometry" />
        </mxCell>
        <mxCell id="igS4MY7iavCe2Ax2GVKu-19" value="hora = 8&lt;br&gt;minuto = 30" style="text;strokeColor=none;fillColor=none;align=left;verticalAlign=top;spacingLeft=4;spacingRight=4;overflow=hidden;rotatable=0;points=[[0,0.5],[1,0.5]];portConstraint=eastwest;whiteSpace=wrap;html=1;" vertex="1" parent="igS4MY7iavCe2Ax2GVKu-18">
          <mxGeometry y="26" width="140" height="54" as="geometry" />
        </mxCell>
        <mxCell id="igS4MY7iavCe2Ax2GVKu-20" value="&lt;b&gt;out2v1:Tempo&lt;/b&gt;" style="swimlane;fontStyle=0;childLayout=stackLayout;horizontal=1;startSize=26;fillColor=none;horizontalStack=0;resizeParent=1;resizeParentMax=0;resizeLast=0;collapsible=1;marginBottom=0;whiteSpace=wrap;html=1;" vertex="1" parent="WIyWlLk6GJQsqaUBKTNV-1">
          <mxGeometry x="1377.5" y="1500" width="140" height="80" as="geometry" />
        </mxCell>
        <mxCell id="igS4MY7iavCe2Ax2GVKu-21" value="hora = 9&lt;br&gt;minuto = 30" style="text;strokeColor=none;fillColor=none;align=left;verticalAlign=top;spacingLeft=4;spacingRight=4;overflow=hidden;rotatable=0;points=[[0,0.5],[1,0.5]];portConstraint=eastwest;whiteSpace=wrap;html=1;" vertex="1" parent="igS4MY7iavCe2Ax2GVKu-20">
          <mxGeometry y="26" width="140" height="54" as="geometry" />
        </mxCell>
        <mxCell id="igS4MY7iavCe2Ax2GVKu-22" value="" style="edgeStyle=none;orthogonalLoop=1;jettySize=auto;html=1;rounded=0;exitX=0.007;exitY=0.332;exitDx=0;exitDy=0;entryX=0.5;entryY=0;entryDx=0;entryDy=0;exitPerimeter=0;" edge="1" parent="WIyWlLk6GJQsqaUBKTNV-1" source="igS4MY7iavCe2Ax2GVKu-10" target="igS4MY7iavCe2Ax2GVKu-13">
          <mxGeometry width="80" relative="1" as="geometry">
            <mxPoint x="1357.5" y="1050" as="sourcePoint" />
            <mxPoint x="1407.5" y="1068" as="targetPoint" />
            <Array as="points">
              <mxPoint x="1417.5" y="1070" />
            </Array>
          </mxGeometry>
        </mxCell>
        <mxCell id="igS4MY7iavCe2Ax2GVKu-23" value="" style="edgeStyle=none;orthogonalLoop=1;jettySize=auto;html=1;rounded=0;entryX=0.546;entryY=0.013;entryDx=0;entryDy=0;entryPerimeter=0;" edge="1" parent="WIyWlLk6GJQsqaUBKTNV-1" target="igS4MY7iavCe2Ax2GVKu-11">
          <mxGeometry width="80" relative="1" as="geometry">
            <mxPoint x="1727.5" y="1070" as="sourcePoint" />
            <mxPoint x="1807.5" y="1070" as="targetPoint" />
            <Array as="points">
              <mxPoint x="1833.5" y="1070" />
            </Array>
          </mxGeometry>
        </mxCell>
        <mxCell id="igS4MY7iavCe2Ax2GVKu-24" value="" style="edgeStyle=none;orthogonalLoop=1;jettySize=auto;html=1;rounded=0;exitX=0.007;exitY=0.332;exitDx=0;exitDy=0;entryX=0.5;entryY=0;entryDx=0;entryDy=0;exitPerimeter=0;" edge="1" parent="WIyWlLk6GJQsqaUBKTNV-1" target="igS4MY7iavCe2Ax2GVKu-18">
          <mxGeometry width="80" relative="1" as="geometry">
            <mxPoint x="1148.5" y="1420" as="sourcePoint" />
            <mxPoint x="1047.5" y="1500" as="targetPoint" />
            <Array as="points">
              <mxPoint x="1037.5" y="1420" />
            </Array>
          </mxGeometry>
        </mxCell>
        <mxCell id="igS4MY7iavCe2Ax2GVKu-25" value="" style="edgeStyle=none;orthogonalLoop=1;jettySize=auto;html=1;rounded=0;exitX=1.002;exitY=0.314;exitDx=0;exitDy=0;entryX=0.5;entryY=0;entryDx=0;entryDy=0;exitPerimeter=0;" edge="1" parent="WIyWlLk6GJQsqaUBKTNV-1" source="igS4MY7iavCe2Ax2GVKu-17" target="igS4MY7iavCe2Ax2GVKu-20">
          <mxGeometry width="80" relative="1" as="geometry">
            <mxPoint x="1628.5" y="1410" as="sourcePoint" />
            <mxPoint x="1467.5" y="1520" as="targetPoint" />
            <Array as="points">
              <mxPoint x="1447.5" y="1421" />
            </Array>
          </mxGeometry>
        </mxCell>
        <mxCell id="igS4MY7iavCe2Ax2GVKu-26" value="" style="edgeStyle=none;orthogonalLoop=1;jettySize=auto;html=1;rounded=0;exitX=0.495;exitY=0.999;exitDx=0;exitDy=0;exitPerimeter=0;" edge="1" parent="WIyWlLk6GJQsqaUBKTNV-1" source="igS4MY7iavCe2Ax2GVKu-10">
          <mxGeometry width="80" relative="1" as="geometry">
            <mxPoint x="1607.5" y="1170" as="sourcePoint" />
            <mxPoint x="1247.5" y="1310" as="targetPoint" />
            <Array as="points">
              <mxPoint x="1621.5" y="1270" />
              <mxPoint x="1247.5" y="1270" />
            </Array>
          </mxGeometry>
        </mxCell>
        <mxCell id="igS4MY7iavCe2Ax2GVKu-27" value="&lt;b&gt;e2v2:Acesso&lt;/b&gt;" style="swimlane;fontStyle=0;childLayout=stackLayout;horizontal=1;startSize=26;fillColor=none;horizontalStack=0;resizeParent=1;resizeParentMax=0;resizeLast=0;collapsible=1;marginBottom=0;whiteSpace=wrap;html=1;" vertex="1" parent="WIyWlLk6GJQsqaUBKTNV-1">
          <mxGeometry x="1907.5" y="1310" width="190" height="240" as="geometry" />
        </mxCell>
        <mxCell id="igS4MY7iavCe2Ax2GVKu-28" value="placa = AC50M" style="text;strokeColor=none;fillColor=none;align=left;verticalAlign=top;spacingLeft=4;spacingRight=4;overflow=hidden;rotatable=0;points=[[0,0.5],[1,0.5]];portConstraint=eastwest;whiteSpace=wrap;html=1;" vertex="1" parent="igS4MY7iavCe2Ax2GVKu-27">
          <mxGeometry y="26" width="190" height="26" as="geometry" />
        </mxCell>
        <mxCell id="igS4MY7iavCe2Ax2GVKu-29" value="acessoHoraCheia = false&lt;br&gt;&lt;br&gt;acessoDiariaDiurna = true&lt;br&gt;&lt;br&gt;acessoDiariaNoturna = false&lt;br&gt;&lt;br&gt;acessoMensalista = false&lt;br&gt;&lt;br&gt;acessoEvento = false&lt;br&gt;&lt;br&gt;valorTotal = 70.00" style="text;strokeColor=none;fillColor=none;align=left;verticalAlign=top;spacingLeft=4;spacingRight=4;overflow=hidden;rotatable=0;points=[[0,0.5],[1,0.5]];portConstraint=eastwest;whiteSpace=wrap;html=1;" vertex="1" parent="igS4MY7iavCe2Ax2GVKu-27">
          <mxGeometry y="52" width="190" height="188" as="geometry" />
        </mxCell>
        <mxCell id="igS4MY7iavCe2Ax2GVKu-30" value="&lt;b&gt;in2v2:Tempo&lt;/b&gt;" style="swimlane;fontStyle=0;childLayout=stackLayout;horizontal=1;startSize=26;fillColor=none;horizontalStack=0;resizeParent=1;resizeParentMax=0;resizeLast=0;collapsible=1;marginBottom=0;whiteSpace=wrap;html=1;" vertex="1" parent="WIyWlLk6GJQsqaUBKTNV-1">
          <mxGeometry x="1727.5" y="1500" width="140" height="80" as="geometry" />
        </mxCell>
        <mxCell id="igS4MY7iavCe2Ax2GVKu-31" value="hora = 8&lt;br&gt;minuto = 0" style="text;strokeColor=none;fillColor=none;align=left;verticalAlign=top;spacingLeft=4;spacingRight=4;overflow=hidden;rotatable=0;points=[[0,0.5],[1,0.5]];portConstraint=eastwest;whiteSpace=wrap;html=1;" vertex="1" parent="igS4MY7iavCe2Ax2GVKu-30">
          <mxGeometry y="26" width="140" height="54" as="geometry" />
        </mxCell>
        <mxCell id="igS4MY7iavCe2Ax2GVKu-32" value="&lt;b&gt;out2v2:Tempo&lt;/b&gt;" style="swimlane;fontStyle=0;childLayout=stackLayout;horizontal=1;startSize=26;fillColor=none;horizontalStack=0;resizeParent=1;resizeParentMax=0;resizeLast=0;collapsible=1;marginBottom=0;whiteSpace=wrap;html=1;" vertex="1" parent="WIyWlLk6GJQsqaUBKTNV-1">
          <mxGeometry x="2137.5" y="1500" width="140" height="80" as="geometry" />
        </mxCell>
        <mxCell id="igS4MY7iavCe2Ax2GVKu-33" value="hora = 18&lt;br&gt;minuto = 0" style="text;strokeColor=none;fillColor=none;align=left;verticalAlign=top;spacingLeft=4;spacingRight=4;overflow=hidden;rotatable=0;points=[[0,0.5],[1,0.5]];portConstraint=eastwest;whiteSpace=wrap;html=1;" vertex="1" parent="igS4MY7iavCe2Ax2GVKu-32">
          <mxGeometry y="26" width="140" height="54" as="geometry" />
        </mxCell>
        <mxCell id="igS4MY7iavCe2Ax2GVKu-34" value="" style="edgeStyle=none;orthogonalLoop=1;jettySize=auto;html=1;rounded=0;exitX=0.007;exitY=0.332;exitDx=0;exitDy=0;entryX=0.5;entryY=0;entryDx=0;entryDy=0;exitPerimeter=0;" edge="1" parent="WIyWlLk6GJQsqaUBKTNV-1" target="igS4MY7iavCe2Ax2GVKu-30">
          <mxGeometry width="80" relative="1" as="geometry">
            <mxPoint x="1908.5" y="1420" as="sourcePoint" />
            <mxPoint x="1807.5" y="1500" as="targetPoint" />
            <Array as="points">
              <mxPoint x="1797.5" y="1420" />
            </Array>
          </mxGeometry>
        </mxCell>
        <mxCell id="igS4MY7iavCe2Ax2GVKu-35" value="" style="edgeStyle=none;orthogonalLoop=1;jettySize=auto;html=1;rounded=0;exitX=1.013;exitY=0.314;exitDx=0;exitDy=0;entryX=0.5;entryY=0;entryDx=0;entryDy=0;exitPerimeter=0;" edge="1" parent="WIyWlLk6GJQsqaUBKTNV-1" source="igS4MY7iavCe2Ax2GVKu-29" target="igS4MY7iavCe2Ax2GVKu-32">
          <mxGeometry width="80" relative="1" as="geometry">
            <mxPoint x="2388.5" y="1410" as="sourcePoint" />
            <mxPoint x="2227.5" y="1520" as="targetPoint" />
            <Array as="points">
              <mxPoint x="2207.5" y="1421" />
            </Array>
          </mxGeometry>
        </mxCell>
        <mxCell id="igS4MY7iavCe2Ax2GVKu-36" value="" style="edgeStyle=none;orthogonalLoop=1;jettySize=auto;html=1;rounded=0;exitX=0.495;exitY=0.992;exitDx=0;exitDy=0;exitPerimeter=0;" edge="1" parent="WIyWlLk6GJQsqaUBKTNV-1" source="igS4MY7iavCe2Ax2GVKu-10">
          <mxGeometry width="80" relative="1" as="geometry">
            <mxPoint x="2097.5" y="1190" as="sourcePoint" />
            <mxPoint x="2007.5" y="1310" as="targetPoint" />
            <Array as="points">
              <mxPoint x="1622.5" y="1270" />
              <mxPoint x="2007.5" y="1270" />
            </Array>
          </mxGeometry>
        </mxCell>
      </root>
    </mxGraphModel>
  </diagram>
</mxfile>
